<svg width="19" height="18" viewBox="0 0 19 18" fill="none" xmlns="http://www.w3.org/2000/svg">
<g clip-path="url(#clip0_2262_33482)">
<path d="M9.5 1.5C5.36 1.5 2 4.86 2 9C2 13.14 5.36 16.5 9.5 16.5C13.64 16.5 17 13.14 17 9C17 4.86 13.64 1.5 9.5 1.5ZM15.095 6.84L13.01 7.7025C12.6275 6.6825 11.825 5.8725 10.7975 5.4975L11.66 3.4125C13.235 4.0125 14.4875 5.265 15.095 6.84ZM9.5 11.25C8.255 11.25 7.25 10.245 7.25 9C7.25 7.755 8.255 6.75 9.5 6.75C10.745 6.75 11.75 7.755 11.75 9C11.75 10.245 10.745 11.25 9.5 11.25ZM7.3475 3.405L8.225 5.49C7.19 5.865 6.3725 6.6825 5.99 7.7175L3.905 6.8475C4.5125 5.265 5.765 4.0125 7.3475 3.405ZM3.905 11.1525L5.99 10.29C6.3725 11.325 7.1825 12.135 8.2175 12.51L7.34 14.595C5.765 13.9875 4.5125 12.735 3.905 11.1525ZM11.66 14.595L10.7975 12.51C11.825 12.1275 12.635 11.3175 13.01 10.2825L15.095 11.16C14.4875 12.735 13.235 13.9875 11.66 14.595Z" fill="white"/>
</g>
<defs>
<clipPath id="clip0_2262_33482">
<rect width="18" height="18" fill="white" transform="translate(0.5)"/>
</clipPath>
</defs>
</svg>
