<svg width="16" height="18" viewBox="0 0 16 18" fill="none" xmlns="http://www.w3.org/2000/svg">
<path d="M3.3077 17.4998C2.80898 17.4998 2.38302 17.3232 2.02982 16.97C1.67661 16.6168 1.5 16.1908 1.5 15.6921V2.99981H1.25C1.03718 2.99981 0.858983 2.92802 0.7154 2.78443C0.5718 2.64085 0.5 2.46265 0.5 2.24983C0.5 2.03702 0.5718 1.85882 0.7154 1.71523C0.858983 1.57163 1.03718 1.49983 1.25 1.49983H4.99997C4.99997 1.25497 5.08619 1.04632 5.25863 0.873885C5.43106 0.701451 5.63971 0.615234 5.88457 0.615234H10.1154C10.3602 0.615234 10.5689 0.701451 10.7413 0.873885C10.9138 1.04632 11 1.25497 11 1.49983H14.75C14.9628 1.49983 15.141 1.57163 15.2845 1.71523C15.4281 1.85882 15.5 2.03702 15.5 2.24983C15.5 2.46265 15.4281 2.64085 15.2845 2.78443C15.141 2.92802 14.9628 2.99981 14.75 2.99981H14.5V15.6921C14.5 16.1908 14.3233 16.6168 13.9701 16.97C13.6169 17.3232 13.191 17.4998 12.6922 17.4998H3.3077ZM13 2.99981H2.99997V15.6921C2.99997 15.7818 3.02883 15.8556 3.08652 15.9133C3.14422 15.971 3.21795 15.9998 3.3077 15.9998H12.6922C12.782 15.9998 12.8557 15.971 12.9134 15.9133C12.9711 15.8556 13 15.7818 13 15.6921V2.99981ZM5.40385 13.9998H6.90382V4.99981H5.40385V13.9998ZM9.09613 13.9998H10.5961V4.99981H9.09613V13.9998Z" fill="#C81E1E"/>
</svg>
