<svg width="16" height="4" viewBox="0 0 16 4" fill="none" xmlns="http://www.w3.org/2000/svg">
<path d="M2.23071 3.5C1.81821 3.5 1.46513 3.35308 1.17146 3.05925C0.87763 2.76558 0.730713 2.4125 0.730713 2C0.730713 1.5875 0.87763 1.23442 1.17146 0.94075C1.46513 0.646917 1.81821 0.5 2.23071 0.5C2.64321 0.5 2.99638 0.646917 3.29021 0.94075C3.58388 1.23442 3.73071 1.5875 3.73071 2C3.73071 2.4125 3.58388 2.76558 3.29021 3.05925C2.99638 3.35308 2.64321 3.5 2.23071 3.5ZM7.99996 3.5C7.58746 3.5 7.23438 3.35308 6.94071 3.05925C6.64688 2.76558 6.49996 2.4125 6.49996 2C6.49996 1.5875 6.64688 1.23442 6.94071 0.94075C7.23438 0.646917 7.58746 0.5 7.99996 0.5C8.41246 0.5 8.76555 0.646917 9.05921 0.94075C9.35305 1.23442 9.49996 1.5875 9.49996 2C9.49996 2.4125 9.35305 2.76558 9.05921 3.05925C8.76555 3.35308 8.41246 3.5 7.99996 3.5ZM13.7692 3.5C13.3567 3.5 13.0035 3.35308 12.7097 3.05925C12.416 2.76558 12.2692 2.4125 12.2692 2C12.2692 1.5875 12.416 1.23442 12.7097 0.94075C13.0035 0.646917 13.3567 0.5 13.7692 0.5C14.1817 0.5 14.5348 0.646917 14.8285 0.94075C15.1223 1.23442 15.2692 1.5875 15.2692 2C15.2692 2.4125 15.1223 2.76558 14.8285 3.05925C14.5348 3.35308 14.1817 3.5 13.7692 3.5Z" fill="white"/>
</svg>
