<svg width="8" height="14" viewBox="0 0 8 14" fill="none" xmlns="http://www.w3.org/2000/svg">
<path d="M2.36672 7.00032L7.26672 11.9003C7.43338 12.067 7.51394 12.2614 7.50838 12.4837C7.50283 12.7059 7.41672 12.9003 7.25005 13.067C7.08338 13.2337 6.88894 13.317 6.66672 13.317C6.44449 13.317 6.25005 13.2337 6.08338 13.067L0.950049 7.95032C0.816715 7.81698 0.716715 7.66699 0.650049 7.50032C0.583382 7.33365 0.550049 7.16699 0.550049 7.00032C0.550049 6.83365 0.583382 6.66699 0.650049 6.50032C0.716715 6.33365 0.816715 6.18365 0.950049 6.05032L6.08338 0.916984C6.25005 0.750318 6.44727 0.669762 6.67505 0.675318C6.90283 0.680873 7.10005 0.766984 7.26672 0.933651C7.43338 1.10032 7.51672 1.29476 7.51672 1.51698C7.51672 1.73921 7.43338 1.93365 7.26672 2.10032L2.36672 7.00032Z" fill="white"/>
</svg>
