<svg width="15" height="24" viewBox="0 0 15 24" fill="none" xmlns="http://www.w3.org/2000/svg">
<path d="M14.7205 7.39674C14.7205 5.34537 14.0067 3.59979 12.5792 2.16C11.1518 0.720003 9.41421 0 7.36642 0C5.31863 0 3.57895 0.720003 2.14737 2.16C0.715789 3.59979 0 5.34537 0 7.39674V18.7532C0 20.2106 0.506105 21.4495 1.51832 22.4697C2.53032 23.4899 3.76505 24 5.22253 24C6.68 24 7.91484 23.4899 8.92705 22.4697C9.93926 21.4495 10.4454 20.2106 10.4454 18.7532V8.004C10.4454 7.14905 10.1476 6.41916 9.552 5.81432C8.95621 5.20947 8.23032 4.90705 7.37432 4.90705C6.51811 4.90705 5.78758 5.20737 5.18274 5.808C4.57789 6.40863 4.27547 7.14063 4.27547 8.004V18.1456C4.27547 18.414 4.36621 18.6391 4.54768 18.8207C4.72937 19.0022 4.95453 19.0929 5.22316 19.0929C5.49158 19.0929 5.71653 19.0022 5.898 18.8207C6.07926 18.6391 6.16989 18.414 6.16989 18.1456V8.004C6.16989 7.66547 6.28368 7.38042 6.51126 7.14884C6.73884 6.91726 7.02189 6.80147 7.36042 6.80147C7.69874 6.80147 7.98168 6.91726 8.20926 7.14884C8.43684 7.38042 8.55063 7.66547 8.55063 8.004V18.7652C8.53758 19.698 8.21358 20.4879 7.57863 21.1348C6.94368 21.7818 6.15832 22.1053 5.22253 22.1053C4.29074 22.1053 3.50316 21.7798 2.85979 21.1288C2.21642 20.4777 1.89474 19.6858 1.89474 18.7532V7.39674C1.88168 5.86958 2.40958 4.57084 3.47842 3.50053C4.54726 2.43 5.84474 1.89474 7.37084 1.89474C8.87526 1.89474 10.1541 2.43 11.2074 3.50053C12.2604 4.57084 12.7999 5.86958 12.8258 7.39674V18.1456C12.8258 18.414 12.9166 18.6391 13.0983 18.8207C13.28 19.0022 13.5052 19.0929 13.7738 19.0929C14.0422 19.0929 14.2672 19.0022 14.4486 18.8207C14.6299 18.6391 14.7205 18.414 14.7205 18.1456V7.39674Z" fill="white"/>
</svg>
