<svg width="12" height="16" viewBox="0 0 12 16" fill="none" xmlns="http://www.w3.org/2000/svg">
<path d="M0 13.25V11.75H1.5V6.5C1.5 5.4625 1.8125 4.5405 2.4375 3.734C3.0625 2.928 3.875 2.4 4.875 2.15V1.625C4.875 1.3125 4.9845 1.047 5.2035 0.8285C5.422 0.6095 5.6875 0.5 6 0.5C6.3125 0.5 6.578 0.6095 6.7965 0.8285C7.0155 1.047 7.125 1.3125 7.125 1.625V2.15C8.125 2.4 8.9375 2.928 9.5625 3.734C10.1875 4.5405 10.5 5.4625 10.5 6.5V11.75H12V13.25H0ZM6 15.5C5.5875 15.5 5.2345 15.3533 4.941 15.0597C4.647 14.7657 4.5 14.4125 4.5 14H7.5C7.5 14.4125 7.35325 14.7657 7.05975 15.0597C6.76575 15.3533 6.4125 15.5 6 15.5ZM3 11.75H9V6.5C9 5.675 8.70625 4.96875 8.11875 4.38125C7.53125 3.79375 6.825 3.5 6 3.5C5.175 3.5 4.46875 3.79375 3.88125 4.38125C3.29375 4.96875 3 5.675 3 6.5V11.75Z" fill="white"/>
</svg>
