<svg width="20" height="14" viewBox="0 0 20 14" fill="none" xmlns="http://www.w3.org/2000/svg">
<path d="M2.62305 6.00015L6.69615 10.0732C6.84487 10.2219 6.91827 10.396 6.91635 10.5953C6.91442 10.7947 6.83589 10.9719 6.68078 11.127C6.52564 11.2719 6.35 11.3469 6.15385 11.352C5.9577 11.3572 5.78207 11.2822 5.62695 11.127L1.13273 6.63282C1.03914 6.53924 0.97312 6.44052 0.934653 6.33667C0.896186 6.23284 0.876953 6.12067 0.876953 6.00015C0.876953 5.87963 0.896186 5.76746 0.934653 5.66362C0.97312 5.55977 1.03914 5.46106 1.13273 5.36747L5.62695 0.873249C5.7654 0.734783 5.93687 0.663949 6.14135 0.660749C6.34584 0.657533 6.52564 0.728366 6.68078 0.873249C6.83589 1.02837 6.91345 1.20657 6.91345 1.40785C6.91345 1.60912 6.83589 1.78732 6.68078 1.94245L2.62305 6.00015ZM7.9307 6.75012L11.2538 10.0732C11.4025 10.2219 11.4759 10.396 11.474 10.5953C11.4721 10.7947 11.3936 10.9719 11.2384 11.127C11.0833 11.2719 10.9077 11.3469 10.7115 11.352C10.5154 11.3572 10.3397 11.2822 10.1846 11.127L5.69038 6.63282C5.59679 6.53924 5.53077 6.44052 5.4923 6.33667C5.45385 6.23284 5.43463 6.12067 5.43463 6.00015C5.43463 5.87963 5.45385 5.76746 5.4923 5.66362C5.53077 5.55977 5.59679 5.46106 5.69038 5.36747L10.1846 0.873249C10.3231 0.734783 10.4945 0.663949 10.699 0.660749C10.9035 0.657533 11.0833 0.728366 11.2384 0.873249C11.3936 1.02837 11.4711 1.20657 11.4711 1.40785C11.4711 1.60912 11.3936 1.78732 11.2384 1.94245L7.9307 5.25017H14.75C16.0628 5.25017 17.1827 5.71363 18.1096 6.64055C19.0365 7.56747 19.5 8.68733 19.5 10.0001V12.7501C19.5 12.9629 19.4282 13.1411 19.2846 13.2847C19.141 13.4283 18.9628 13.5001 18.75 13.5001C18.5372 13.5001 18.359 13.4283 18.2154 13.2847C18.0718 13.1411 18 12.9629 18 12.7501V10.0001C18 9.10272 17.6827 8.33668 17.0481 7.70205C16.4135 7.06743 15.6474 6.75012 14.75 6.75012H7.9307Z" fill="white"/>
</svg>
