<svg width="16" height="28" viewBox="0 0 16 28" fill="none" xmlns="http://www.w3.org/2000/svg">
<path d="M-7.33333 21H11.3333C11.975 21 12.5 20.475 12.5 19.8333C12.5 19.1917 11.975 18.6667 11.3333 18.6667H-7.33333C-7.975 18.6667 -8.5 19.1917 -8.5 19.8333C-8.5 20.475 -7.975 21 -7.33333 21ZM-7.33333 15.1667H11.3333C11.975 15.1667 12.5 14.6417 12.5 14C12.5 13.3583 11.975 12.8333 11.3333 12.8333H-7.33333C-7.975 12.8333 -8.5 13.3583 -8.5 14C-8.5 14.6417 -7.975 15.1667 -7.33333 15.1667ZM-8.5 8.16667C-8.5 8.80833 -7.975 9.33333 -7.33333 9.33333H11.3333C11.975 9.33333 12.5 8.80833 12.5 8.16667C12.5 7.525 11.975 7 11.3333 7H-7.33333C-7.975 7 -8.5 7.525 -8.5 8.16667Z" fill="white"/>
</svg>
