<svg width="34" height="29" viewBox="0 0 34 29" fill="none" xmlns="http://www.w3.org/2000/svg">
<path fill-rule="evenodd" clip-rule="evenodd" d="M6.83193 7.9998C6.83193 7.61321 7.14533 7.2998 7.53193 7.2998C7.91853 7.2998 8.23193 7.61321 8.23193 7.9998C8.23193 10.156 7.21341 12.0743 5.63124 13.2998H32.5319C32.9185 13.2998 33.2319 13.6132 33.2319 13.9998C33.2319 14.3864 32.9185 14.6998 32.5319 14.6998H5.63124C7.21341 15.9253 8.23193 17.8436 8.23193 19.9998C8.23193 20.3864 7.91853 20.6998 7.53193 20.6998C7.14533 20.6998 6.83193 20.3864 6.83193 19.9998C6.83193 17.0727 4.45904 14.6998 1.53193 14.6998C1.14533 14.6998 0.831932 14.3864 0.831932 13.9998C0.831932 13.6132 1.14533 13.2998 1.53193 13.2998C4.45904 13.2998 6.83193 10.9269 6.83193 7.9998Z" fill="#111928"/>
</svg>
